# xmcd CD database file
#
# Track frame offsets:
#	150
#	15610
#	33694
#	53039
#	73649
#	99519
#	115495
#	128212
#	146931
#	171837
#	189089
#	213462
#	225811
#	234217
#
# Disc length: 3396 seconds
#
# Revision: 0
# Processed by: cddbd v1.5.2PL0 Copyright (c) Steve Scherf et al.
# Submitted via: CDex 1.70beta2
#
DISCID=bc0d420e
DTITLE=久石譲 - Another Piano Stories -The End of the World-
DYEAR=2009
DGENRE=New Age
TTITLE0=Woman
TTITLE1=Love Theme of Taewangsashingi
TTITLE2=Les Aventuriers
TTITLE3=Departures Prologue - Theme
TTITLE4=Prayer
TTITLE5=Theme of Departures
TTITLE6=Ponyo on the Cliff by the Sea
TTITLE7=Destiny of Us (from Musical Turandot)
TTITLE8=The End of the World I.Collapse
TTITLE9=II.Grace of the St. Paul
TTITLE10=III.Beyond the World
TTITLE11=IV.The End of the World
TTITLE12=I’d rather be a Shelfish
TTITLE13=I will be
EXTD=YEAR: 2009
EXTT0=
EXTT1=
EXTT2=
EXTT3=
EXTT4=
EXTT5=
EXTT6=
EXTT7=
EXTT8=
EXTT9=
EXTT10=
EXTT11=
EXTT12=
EXTT13=
PLAYORDER=
